<?xml version="1.0" standalone="no"?>
<svg xmlns:xlink="http://www.w3.org/1999/xlink" id="wave" style="transform:rotate(0deg); transition: 0.3s" viewBox="0 0 1440 490" version="1.1" xmlns="http://www.w3.org/2000/svg"><defs><linearGradient id="sw-gradient-0" x1="0" x2="0" y1="1" y2="0"><stop stop-color="rgba(255, 255, 255, 1)" offset="0%"/><stop stop-color="rgba(238.522, 238.522, 238.522, 1)" offset="100%"/></linearGradient></defs><path style="transform:translate(0, 0px); opacity:1" fill="url(#sw-gradient-0)" d="M0,98L10,98C20,98,40,98,60,122.5C80,147,100,196,120,179.7C140,163,160,82,180,98C200,114,220,229,240,277.7C260,327,280,310,300,310.3C320,310,340,327,360,277.7C380,229,400,114,420,114.3C440,114,460,229,480,285.8C500,343,520,343,540,351.2C560,359,580,376,600,318.5C620,261,640,131,660,138.8C680,147,700,294,720,326.7C740,359,760,278,780,261.3C800,245,820,294,840,334.8C860,376,880,408,900,416.5C920,425,940,408,960,351.2C980,294,1000,196,1020,196C1040,196,1060,294,1080,302.2C1100,310,1120,229,1140,179.7C1160,131,1180,114,1200,106.2C1220,98,1240,98,1260,106.2C1280,114,1300,131,1320,155.2C1340,180,1360,212,1380,228.7C1400,245,1420,245,1430,245L1440,245L1440,490L1430,490C1420,490,1400,490,1380,490C1360,490,1340,490,1320,490C1300,490,1280,490,1260,490C1240,490,1220,490,1200,490C1180,490,1160,490,1140,490C1120,490,1100,490,1080,490C1060,490,1040,490,1020,490C1000,490,980,490,960,490C940,490,920,490,900,490C880,490,860,490,840,490C820,490,800,490,780,490C760,490,740,490,720,490C700,490,680,490,660,490C640,490,620,490,600,490C580,490,560,490,540,490C520,490,500,490,480,490C460,490,440,490,420,490C400,490,380,490,360,490C340,490,320,490,300,490C280,490,260,490,240,490C220,490,200,490,180,490C160,490,140,490,120,490C100,490,80,490,60,490C40,490,20,490,10,490L0,490Z"/><defs><linearGradient id="sw-gradient-1" x1="0" x2="0" y1="1" y2="0"><stop stop-color="rgba(255, 255, 255, 1)" offset="0%"/><stop stop-color="rgba(245.352, 245.352, 245.352, 1)" offset="100%"/></linearGradient></defs><path style="transform:translate(0, 50px); opacity:0.9" fill="url(#sw-gradient-1)" d="M0,147L10,187.8C20,229,40,310,60,334.8C80,359,100,327,120,334.8C140,343,160,392,180,408.3C200,425,220,408,240,383.8C260,359,280,327,300,310.3C320,294,340,294,360,261.3C380,229,400,163,420,155.2C440,147,460,196,480,187.8C500,180,520,114,540,138.8C560,163,580,278,600,269.5C620,261,640,131,660,114.3C680,98,700,196,720,236.8C740,278,760,261,780,285.8C800,310,820,376,840,343C860,310,880,180,900,147C920,114,940,180,960,228.7C980,278,1000,310,1020,269.5C1040,229,1060,114,1080,65.3C1100,16,1120,33,1140,98C1160,163,1180,278,1200,285.8C1220,294,1240,196,1260,147C1280,98,1300,98,1320,138.8C1340,180,1360,261,1380,294C1400,327,1420,310,1430,302.2L1440,294L1440,490L1430,490C1420,490,1400,490,1380,490C1360,490,1340,490,1320,490C1300,490,1280,490,1260,490C1240,490,1220,490,1200,490C1180,490,1160,490,1140,490C1120,490,1100,490,1080,490C1060,490,1040,490,1020,490C1000,490,980,490,960,490C940,490,920,490,900,490C880,490,860,490,840,490C820,490,800,490,780,490C760,490,740,490,720,490C700,490,680,490,660,490C640,490,620,490,600,490C580,490,560,490,540,490C520,490,500,490,480,490C460,490,440,490,420,490C400,490,380,490,360,490C340,490,320,490,300,490C280,490,260,490,240,490C220,490,200,490,180,490C160,490,140,490,120,490C100,490,80,490,60,490C40,490,20,490,10,490L0,490Z"/><defs><linearGradient id="sw-gradient-2" x1="0" x2="0" y1="1" y2="0"><stop stop-color="rgba(255, 255, 255, 1)" offset="0%"/><stop stop-color="rgba(220.308, 220.308, 220.308, 1)" offset="100%"/></linearGradient></defs><path style="transform:translate(0, 100px); opacity:0.8" fill="url(#sw-gradient-2)" d="M0,392L10,343C20,294,40,196,60,171.5C80,147,100,196,120,220.5C140,245,160,245,180,253.2C200,261,220,278,240,302.2C260,327,280,359,300,318.5C320,278,340,163,360,171.5C380,180,400,310,420,359.3C440,408,460,376,480,318.5C500,261,520,180,540,155.2C560,131,580,163,600,163.3C620,163,640,131,660,114.3C680,98,700,98,720,122.5C740,147,760,196,780,236.8C800,278,820,310,840,302.2C860,294,880,245,900,204.2C920,163,940,131,960,98C980,65,1000,33,1020,73.5C1040,114,1060,229,1080,261.3C1100,294,1120,245,1140,220.5C1160,196,1180,196,1200,179.7C1220,163,1240,131,1260,98C1280,65,1300,33,1320,16.3C1340,0,1360,0,1380,40.8C1400,82,1420,163,1430,204.2L1440,245L1440,490L1430,490C1420,490,1400,490,1380,490C1360,490,1340,490,1320,490C1300,490,1280,490,1260,490C1240,490,1220,490,1200,490C1180,490,1160,490,1140,490C1120,490,1100,490,1080,490C1060,490,1040,490,1020,490C1000,490,980,490,960,490C940,490,920,490,900,490C880,490,860,490,840,490C820,490,800,490,780,490C760,490,740,490,720,490C700,490,680,490,660,490C640,490,620,490,600,490C580,490,560,490,540,490C520,490,500,490,480,490C460,490,440,490,420,490C400,490,380,490,360,490C340,490,320,490,300,490C280,490,260,490,240,490C220,490,200,490,180,490C160,490,140,490,120,490C100,490,80,490,60,490C40,490,20,490,10,490L0,490Z"/><defs><linearGradient id="sw-gradient-3" x1="0" x2="0" y1="1" y2="0"><stop stop-color="rgba(156.558, 155.587, 155.276, 1)" offset="0%"/><stop stop-color="rgba(255, 255, 255, 1)" offset="100%"/></linearGradient></defs><path style="transform:translate(0, 150px); opacity:0.7" fill="url(#sw-gradient-3)" d="M0,441L10,408.3C20,376,40,310,60,253.2C80,196,100,147,120,130.7C140,114,160,131,180,138.8C200,147,220,147,240,130.7C260,114,280,82,300,130.7C320,180,340,310,360,318.5C380,327,400,212,420,138.8C440,65,460,33,480,81.7C500,131,520,261,540,326.7C560,392,580,392,600,375.7C620,359,640,327,660,334.8C680,343,700,392,720,343C740,294,760,147,780,130.7C800,114,820,229,840,269.5C860,310,880,278,900,269.5C920,261,940,278,960,294C980,310,1000,327,1020,277.7C1040,229,1060,114,1080,122.5C1100,131,1120,261,1140,326.7C1160,392,1180,392,1200,383.8C1220,376,1240,359,1260,351.2C1280,343,1300,343,1320,302.2C1340,261,1360,180,1380,122.5C1400,65,1420,33,1430,16.3L1440,0L1440,490L1430,490C1420,490,1400,490,1380,490C1360,490,1340,490,1320,490C1300,490,1280,490,1260,490C1240,490,1220,490,1200,490C1180,490,1160,490,1140,490C1120,490,1100,490,1080,490C1060,490,1040,490,1020,490C1000,490,980,490,960,490C940,490,920,490,900,490C880,490,860,490,840,490C820,490,800,490,780,490C760,490,740,490,720,490C700,490,680,490,660,490C640,490,620,490,600,490C580,490,560,490,540,490C520,490,500,490,480,490C460,490,440,490,420,490C400,490,380,490,360,490C340,490,320,490,300,490C280,490,260,490,240,490C220,490,200,490,180,490C160,490,140,490,120,490C100,490,80,490,60,490C40,490,20,490,10,490L0,490Z"/></svg>