<?xml version="1.0" standalone="no"?>
<svg xmlns:xlink="http://www.w3.org/1999/xlink" id="wave" style="transform:rotate(0deg); transition: 0.3s" viewBox="0 0 1440 490" version="1.1" xmlns="http://www.w3.org/2000/svg"><defs><linearGradient id="sw-gradient-0" x1="0" x2="0" y1="1" y2="0"><stop stop-color="rgba(0, 0, 0, 1)" offset="0%"/><stop stop-color="rgba(0, 0, 0, 1)" offset="100%"/></linearGradient></defs><path style="transform:translate(0, 0px); opacity:1" fill="url(#sw-gradient-0)" d="M0,196L10,163.3C20,131,40,65,60,57.2C80,49,100,98,120,155.2C140,212,160,278,180,318.5C200,359,220,376,240,359.3C260,343,280,294,300,269.5C320,245,340,245,360,220.5C380,196,400,147,420,179.7C440,212,460,327,480,310.3C500,294,520,147,540,138.8C560,131,580,261,600,310.3C620,359,640,327,660,269.5C680,212,700,131,720,138.8C740,147,760,245,780,310.3C800,376,820,408,840,416.5C860,425,880,408,900,400.2C920,392,940,392,960,326.7C980,261,1000,131,1020,73.5C1040,16,1060,33,1080,65.3C1100,98,1120,147,1140,155.2C1160,163,1180,131,1200,171.5C1220,212,1240,327,1260,334.8C1280,343,1300,245,1320,187.8C1340,131,1360,114,1380,130.7C1400,147,1420,196,1430,220.5L1440,245L1440,490L1430,490C1420,490,1400,490,1380,490C1360,490,1340,490,1320,490C1300,490,1280,490,1260,490C1240,490,1220,490,1200,490C1180,490,1160,490,1140,490C1120,490,1100,490,1080,490C1060,490,1040,490,1020,490C1000,490,980,490,960,490C940,490,920,490,900,490C880,490,860,490,840,490C820,490,800,490,780,490C760,490,740,490,720,490C700,490,680,490,660,490C640,490,620,490,600,490C580,490,560,490,540,490C520,490,500,490,480,490C460,490,440,490,420,490C400,490,380,490,360,490C340,490,320,490,300,490C280,490,260,490,240,490C220,490,200,490,180,490C160,490,140,490,120,490C100,490,80,490,60,490C40,490,20,490,10,490L0,490Z"/></svg>