<?xml version="1.0" standalone="no"?>
<svg xmlns:xlink="http://www.w3.org/1999/xlink" id="wave" style="transform:rotate(0deg); transition: 0.3s" viewBox="0 0 1440 490" version="1.1" xmlns="http://www.w3.org/2000/svg">
    <defs>
        <linearGradient id="sw-gradient-0" x1="0" x2="0" y1="1" y2="0">
            <stop stop-color="rgba(0, 0, 0, 1)" offset="0%" />
            <stop stop-color="rgba(156.558, 156.558, 156.558, 1)" offset="100%" />
        </linearGradient>
    </defs>
    <path style="transform:translate(0, 0px); opacity:1" fill="url(#sw-gradient-0)" d="M0,245L10,204.2C20,163,40,82,60,114.3C80,147,100,294,120,367.5C140,441,160,441,180,424.7C200,408,220,376,240,343C260,310,280,278,300,285.8C320,294,340,343,360,343C380,343,400,294,420,261.3C440,229,460,212,480,196C500,180,520,163,540,147C560,131,580,114,600,138.8C620,163,640,229,660,261.3C680,294,700,294,720,253.2C740,212,760,131,780,114.3C800,98,820,147,840,138.8C860,131,880,65,900,98C920,131,940,261,960,285.8C980,310,1000,229,1020,204.2C1040,180,1060,212,1080,245C1100,278,1120,310,1140,334.8C1160,359,1180,376,1200,359.3C1220,343,1240,294,1260,269.5C1280,245,1300,245,1320,269.5C1340,294,1360,343,1380,351.2C1400,359,1420,327,1430,310.3L1440,294L1440,490L1430,490C1420,490,1400,490,1380,490C1360,490,1340,490,1320,490C1300,490,1280,490,1260,490C1240,490,1220,490,1200,490C1180,490,1160,490,1140,490C1120,490,1100,490,1080,490C1060,490,1040,490,1020,490C1000,490,980,490,960,490C940,490,920,490,900,490C880,490,860,490,840,490C820,490,800,490,780,490C760,490,740,490,720,490C700,490,680,490,660,490C640,490,620,490,600,490C580,490,560,490,540,490C520,490,500,490,480,490C460,490,440,490,420,490C400,490,380,490,360,490C340,490,320,490,300,490C280,490,260,490,240,490C220,490,200,490,180,490C160,490,140,490,120,490C100,490,80,490,60,490C40,490,20,490,10,490L0,490Z" />
</svg>