<?xml version="1.0" standalone="no"?>
<svg xmlns:xlink="http://www.w3.org/1999/xlink" id="wave" style="transform:rotate(0deg); transition: 0.3s" viewBox="0 0 1440 490" version="1.1" xmlns="http://www.w3.org/2000/svg"><defs><linearGradient id="sw-gradient-0" x1="0" x2="0" y1="1" y2="0"><stop stop-color="rgba(0, 0, 0, 1)" offset="0%"/><stop stop-color="rgba(255, 255, 255, 1)" offset="100%"/></linearGradient></defs><path style="transform:translate(0, 0px); opacity:1" fill="url(#sw-gradient-0)" d="M0,245L10,253.2C20,261,40,278,60,294C80,310,100,327,120,285.8C140,245,160,147,180,130.7C200,114,220,180,240,179.7C260,180,280,114,300,130.7C320,147,340,245,360,285.8C380,327,400,310,420,310.3C440,310,460,327,480,294C500,261,520,180,540,163.3C560,147,580,196,600,204.2C620,212,640,180,660,196C680,212,700,278,720,285.8C740,294,760,245,780,204.2C800,163,820,131,840,98C860,65,880,33,900,16.3C920,0,940,0,960,73.5C980,147,1000,294,1020,302.2C1040,310,1060,180,1080,130.7C1100,82,1120,114,1140,155.2C1160,196,1180,245,1200,220.5C1220,196,1240,98,1260,122.5C1280,147,1300,294,1320,351.2C1340,408,1360,376,1380,351.2C1400,327,1420,310,1430,302.2L1440,294L1440,490L1430,490C1420,490,1400,490,1380,490C1360,490,1340,490,1320,490C1300,490,1280,490,1260,490C1240,490,1220,490,1200,490C1180,490,1160,490,1140,490C1120,490,1100,490,1080,490C1060,490,1040,490,1020,490C1000,490,980,490,960,490C940,490,920,490,900,490C880,490,860,490,840,490C820,490,800,490,780,490C760,490,740,490,720,490C700,490,680,490,660,490C640,490,620,490,600,490C580,490,560,490,540,490C520,490,500,490,480,490C460,490,440,490,420,490C400,490,380,490,360,490C340,490,320,490,300,490C280,490,260,490,240,490C220,490,200,490,180,490C160,490,140,490,120,490C100,490,80,490,60,490C40,490,20,490,10,490L0,490Z"/></svg>