<?xml version="1.0" standalone="no"?>
<svg xmlns:xlink="http://www.w3.org/1999/xlink" id="wave" style="transform:rotate(0deg); transition: 0.3s" viewBox="0 0 1440 490" version="1.1" xmlns="http://www.w3.org/2000/svg"><defs><linearGradient id="sw-gradient-0" x1="0" x2="0" y1="1" y2="0"><stop stop-color="rgba(65.486, 65.486, 65.486, 1)" offset="0%"/><stop stop-color="rgba(115.575, 115.575, 115.575, 1)" offset="100%"/></linearGradient></defs><path style="transform:translate(0, 0px); opacity:1" fill="url(#sw-gradient-0)" d="M0,392L10,392C20,392,40,392,60,334.8C80,278,100,163,120,106.2C140,49,160,49,180,40.8C200,33,220,16,240,57.2C260,98,280,196,300,269.5C320,343,340,392,360,351.2C380,310,400,180,420,122.5C440,65,460,82,480,89.8C500,98,520,98,540,106.2C560,114,580,131,600,163.3C620,196,640,245,660,236.8C680,229,700,163,720,171.5C740,180,760,261,780,302.2C800,343,820,343,840,343C860,343,880,343,900,285.8C920,229,940,114,960,130.7C980,147,1000,294,1020,294C1040,294,1060,147,1080,89.8C1100,33,1120,65,1140,81.7C1160,98,1180,98,1200,81.7C1220,65,1240,33,1260,73.5C1280,114,1300,229,1320,261.3C1340,294,1360,245,1380,245C1400,245,1420,294,1430,318.5L1440,343L1440,490L1430,490C1420,490,1400,490,1380,490C1360,490,1340,490,1320,490C1300,490,1280,490,1260,490C1240,490,1220,490,1200,490C1180,490,1160,490,1140,490C1120,490,1100,490,1080,490C1060,490,1040,490,1020,490C1000,490,980,490,960,490C940,490,920,490,900,490C880,490,860,490,840,490C820,490,800,490,780,490C760,490,740,490,720,490C700,490,680,490,660,490C640,490,620,490,600,490C580,490,560,490,540,490C520,490,500,490,480,490C460,490,440,490,420,490C400,490,380,490,360,490C340,490,320,490,300,490C280,490,260,490,240,490C220,490,200,490,180,490C160,490,140,490,120,490C100,490,80,490,60,490C40,490,20,490,10,490L0,490Z"/><defs><linearGradient id="sw-gradient-1" x1="0" x2="0" y1="1" y2="0"><stop stop-color="rgba(154.281, 154.281, 154.281, 1)" offset="0%"/><stop stop-color="rgba(33.611, 33.611, 33.611, 1)" offset="100%"/></linearGradient></defs><path style="transform:translate(0, 50px); opacity:0.9" fill="url(#sw-gradient-1)" d="M0,294L10,318.5C20,343,40,392,60,408.3C80,425,100,408,120,392C140,376,160,359,180,334.8C200,310,220,278,240,294C260,310,280,376,300,334.8C320,294,340,147,360,147C380,147,400,294,420,351.2C440,408,460,376,480,302.2C500,229,520,114,540,73.5C560,33,580,65,600,65.3C620,65,640,33,660,24.5C680,16,700,33,720,65.3C740,98,760,147,780,163.3C800,180,820,163,840,147C860,131,880,114,900,163.3C920,212,940,327,960,310.3C980,294,1000,147,1020,130.7C1040,114,1060,229,1080,285.8C1100,343,1120,343,1140,294C1160,245,1180,147,1200,106.2C1220,65,1240,82,1260,114.3C1280,147,1300,196,1320,236.8C1340,278,1360,310,1380,318.5C1400,327,1420,310,1430,302.2L1440,294L1440,490L1430,490C1420,490,1400,490,1380,490C1360,490,1340,490,1320,490C1300,490,1280,490,1260,490C1240,490,1220,490,1200,490C1180,490,1160,490,1140,490C1120,490,1100,490,1080,490C1060,490,1040,490,1020,490C1000,490,980,490,960,490C940,490,920,490,900,490C880,490,860,490,840,490C820,490,800,490,780,490C760,490,740,490,720,490C700,490,680,490,660,490C640,490,620,490,600,490C580,490,560,490,540,490C520,490,500,490,480,490C460,490,440,490,420,490C400,490,380,490,360,490C340,490,320,490,300,490C280,490,260,490,240,490C220,490,200,490,180,490C160,490,140,490,120,490C100,490,80,490,60,490C40,490,20,490,10,490L0,490Z"/><defs><linearGradient id="sw-gradient-2" x1="0" x2="0" y1="1" y2="0"><stop stop-color="rgba(76.87, 76.87, 76.87, 1)" offset="0%"/><stop stop-color="rgba(0, 0, 0, 1)" offset="100%"/></linearGradient></defs><path style="transform:translate(0, 100px); opacity:0.8" fill="url(#sw-gradient-2)" d="M0,147L10,130.7C20,114,40,82,60,130.7C80,180,100,310,120,318.5C140,327,160,212,180,179.7C200,147,220,196,240,228.7C260,261,280,278,300,261.3C320,245,340,196,360,204.2C380,212,400,278,420,318.5C440,359,460,376,480,392C500,408,520,425,540,359.3C560,294,580,147,600,81.7C620,16,640,33,660,106.2C680,180,700,310,720,343C740,376,760,310,780,294C800,278,820,310,840,326.7C860,343,880,343,900,326.7C920,310,940,278,960,253.2C980,229,1000,212,1020,236.8C1040,261,1060,327,1080,334.8C1100,343,1120,294,1140,245C1160,196,1180,147,1200,179.7C1220,212,1240,327,1260,367.5C1280,408,1300,376,1320,318.5C1340,261,1360,180,1380,155.2C1400,131,1420,163,1430,179.7L1440,196L1440,490L1430,490C1420,490,1400,490,1380,490C1360,490,1340,490,1320,490C1300,490,1280,490,1260,490C1240,490,1220,490,1200,490C1180,490,1160,490,1140,490C1120,490,1100,490,1080,490C1060,490,1040,490,1020,490C1000,490,980,490,960,490C940,490,920,490,900,490C880,490,860,490,840,490C820,490,800,490,780,490C760,490,740,490,720,490C700,490,680,490,660,490C640,490,620,490,600,490C580,490,560,490,540,490C520,490,500,490,480,490C460,490,440,490,420,490C400,490,380,490,360,490C340,490,320,490,300,490C280,490,260,490,240,490C220,490,200,490,180,490C160,490,140,490,120,490C100,490,80,490,60,490C40,490,20,490,10,490L0,490Z"/><defs><linearGradient id="sw-gradient-3" x1="0" x2="0" y1="1" y2="0"><stop stop-color="rgba(65.486, 65.486, 65.486, 1)" offset="0%"/><stop stop-color="rgba(0, 0, 0, 1)" offset="100%"/></linearGradient></defs><path style="transform:translate(0, 150px); opacity:0.7" fill="url(#sw-gradient-3)" d="M0,49L10,57.2C20,65,40,82,60,106.2C80,131,100,163,120,179.7C140,196,160,196,180,196C200,196,220,196,240,228.7C260,261,280,327,300,302.2C320,278,340,163,360,171.5C380,180,400,310,420,351.2C440,392,460,343,480,343C500,343,520,392,540,375.7C560,359,580,278,600,204.2C620,131,640,65,660,106.2C680,147,700,294,720,294C740,294,760,147,780,89.8C800,33,820,65,840,98C860,131,880,163,900,187.8C920,212,940,229,960,196C980,163,1000,82,1020,81.7C1040,82,1060,163,1080,236.8C1100,310,1120,376,1140,351.2C1160,327,1180,212,1200,163.3C1220,114,1240,131,1260,114.3C1280,98,1300,49,1320,24.5C1340,0,1360,0,1380,65.3C1400,131,1420,261,1430,326.7L1440,392L1440,490L1430,490C1420,490,1400,490,1380,490C1360,490,1340,490,1320,490C1300,490,1280,490,1260,490C1240,490,1220,490,1200,490C1180,490,1160,490,1140,490C1120,490,1100,490,1080,490C1060,490,1040,490,1020,490C1000,490,980,490,960,490C940,490,920,490,900,490C880,490,860,490,840,490C820,490,800,490,780,490C760,490,740,490,720,490C700,490,680,490,660,490C640,490,620,490,600,490C580,490,560,490,540,490C520,490,500,490,480,490C460,490,440,490,420,490C400,490,380,490,360,490C340,490,320,490,300,490C280,490,260,490,240,490C220,490,200,490,180,490C160,490,140,490,120,490C100,490,80,490,60,490C40,490,20,490,10,490L0,490Z"/></svg>