<?xml version="1.0" standalone="no"?>
<svg xmlns:xlink="http://www.w3.org/1999/xlink" id="wave" style="transform:rotate(0deg); transition: 0.3s" viewBox="0 0 1440 490" version="1.1" xmlns="http://www.w3.org/2000/svg"><defs><linearGradient id="sw-gradient-0" x1="0" x2="0" y1="1" y2="0"><stop stop-color="rgba(238.522, 238.522, 238.522, 1)" offset="0%"/><stop stop-color="rgba(255, 255, 255, 1)" offset="100%"/></linearGradient></defs><path style="transform:translate(0, 0px); opacity:1" fill="url(#sw-gradient-0)" d="M0,196L10,196C20,196,40,196,60,179.7C80,163,100,131,120,122.5C140,114,160,131,180,179.7C200,229,220,310,240,310.3C260,310,280,229,300,212.3C320,196,340,245,360,285.8C380,327,400,359,420,310.3C440,261,460,131,480,81.7C500,33,520,65,540,65.3C560,65,580,33,600,81.7C620,131,640,261,660,326.7C680,392,700,392,720,343C740,294,760,196,780,187.8C800,180,820,261,840,310.3C860,359,880,376,900,359.3C920,343,940,294,960,253.2C980,212,1000,180,1020,204.2C1040,229,1060,310,1080,302.2C1100,294,1120,196,1140,163.3C1160,131,1180,163,1200,220.5C1220,278,1240,359,1260,326.7C1280,294,1300,147,1320,114.3C1340,82,1360,163,1380,196C1400,229,1420,212,1430,204.2L1440,196L1440,490L1430,490C1420,490,1400,490,1380,490C1360,490,1340,490,1320,490C1300,490,1280,490,1260,490C1240,490,1220,490,1200,490C1180,490,1160,490,1140,490C1120,490,1100,490,1080,490C1060,490,1040,490,1020,490C1000,490,980,490,960,490C940,490,920,490,900,490C880,490,860,490,840,490C820,490,800,490,780,490C760,490,740,490,720,490C700,490,680,490,660,490C640,490,620,490,600,490C580,490,560,490,540,490C520,490,500,490,480,490C460,490,440,490,420,490C400,490,380,490,360,490C340,490,320,490,300,490C280,490,260,490,240,490C220,490,200,490,180,490C160,490,140,490,120,490C100,490,80,490,60,490C40,490,20,490,10,490L0,490Z"/></svg>