<?xml version="1.0" standalone="no"?>
<svg xmlns:xlink="http://www.w3.org/1999/xlink" id="wave" style="transform:rotate(0deg); transition: 0.3s" viewBox="0 0 1440 250" version="1.1" xmlns="http://www.w3.org/2000/svg"><defs><linearGradient id="sw-gradient-0" x1="0" x2="0" y1="1" y2="0"><stop stop-color="rgba(255, 255, 255, 1)" offset="0%"/><stop stop-color="rgba(0, 0, 0, 1)" offset="100%"/></linearGradient></defs><path style="transform:translate(0, 0px); opacity:1" fill="url(#sw-gradient-0)" d="M0,50L10,50C20,50,40,50,60,79.2C80,108,100,167,120,183.3C140,200,160,175,180,150C200,125,220,100,240,83.3C260,67,280,58,300,50C320,42,340,33,360,62.5C380,92,400,158,420,187.5C440,217,460,208,480,187.5C500,167,520,133,540,100C560,67,580,33,600,41.7C620,50,640,100,660,133.3C680,167,700,183,720,195.8C740,208,760,217,780,208.3C800,200,820,175,840,170.8C860,167,880,183,900,179.2C920,175,940,150,960,141.7C980,133,1000,142,1020,158.3C1040,175,1060,200,1080,200C1100,200,1120,175,1140,166.7C1160,158,1180,167,1200,162.5C1220,158,1240,142,1260,129.2C1280,117,1300,108,1320,125C1340,142,1360,183,1380,166.7C1400,150,1420,75,1430,37.5L1440,0L1440,250L1430,250C1420,250,1400,250,1380,250C1360,250,1340,250,1320,250C1300,250,1280,250,1260,250C1240,250,1220,250,1200,250C1180,250,1160,250,1140,250C1120,250,1100,250,1080,250C1060,250,1040,250,1020,250C1000,250,980,250,960,250C940,250,920,250,900,250C880,250,860,250,840,250C820,250,800,250,780,250C760,250,740,250,720,250C700,250,680,250,660,250C640,250,620,250,600,250C580,250,560,250,540,250C520,250,500,250,480,250C460,250,440,250,420,250C400,250,380,250,360,250C340,250,320,250,300,250C280,250,260,250,240,250C220,250,200,250,180,250C160,250,140,250,120,250C100,250,80,250,60,250C40,250,20,250,10,250L0,250Z"/><defs><linearGradient id="sw-gradient-1" x1="0" x2="0" y1="1" y2="0"><stop stop-color="rgba(0, 0, 0, 1)" offset="0%"/><stop stop-color="rgba(127.415, 127.415, 127.415, 1)" offset="100%"/></linearGradient></defs><path style="transform:translate(0, 50px); opacity:0.9" fill="url(#sw-gradient-1)" d="M0,175L10,158.3C20,142,40,108,60,108.3C80,108,100,142,120,145.8C140,150,160,125,180,125C200,125,220,150,240,158.3C260,167,280,158,300,166.7C320,175,340,200,360,195.8C380,192,400,158,420,154.2C440,150,460,175,480,191.7C500,208,520,217,540,183.3C560,150,580,75,600,54.2C620,33,640,67,660,87.5C680,108,700,117,720,129.2C740,142,760,158,780,145.8C800,133,820,92,840,75C860,58,880,67,900,58.3C920,50,940,25,960,20.8C980,17,1000,33,1020,62.5C1040,92,1060,133,1080,133.3C1100,133,1120,92,1140,79.2C1160,67,1180,83,1200,79.2C1220,75,1240,50,1260,66.7C1280,83,1300,142,1320,170.8C1340,200,1360,200,1380,166.7C1400,133,1420,67,1430,33.3L1440,0L1440,250L1430,250C1420,250,1400,250,1380,250C1360,250,1340,250,1320,250C1300,250,1280,250,1260,250C1240,250,1220,250,1200,250C1180,250,1160,250,1140,250C1120,250,1100,250,1080,250C1060,250,1040,250,1020,250C1000,250,980,250,960,250C940,250,920,250,900,250C880,250,860,250,840,250C820,250,800,250,780,250C760,250,740,250,720,250C700,250,680,250,660,250C640,250,620,250,600,250C580,250,560,250,540,250C520,250,500,250,480,250C460,250,440,250,420,250C400,250,380,250,360,250C340,250,320,250,300,250C280,250,260,250,240,250C220,250,200,250,180,250C160,250,140,250,120,250C100,250,80,250,60,250C40,250,20,250,10,250L0,250Z"/><defs><linearGradient id="sw-gradient-2" x1="0" x2="0" y1="1" y2="0"><stop stop-color="rgba(93.263, 93.263, 93.263, 1)" offset="0%"/><stop stop-color="rgba(0, 0, 0, 1)" offset="100%"/></linearGradient></defs><path style="transform:translate(0, 100px); opacity:0.8" fill="url(#sw-gradient-2)" d="M0,25L10,33.3C20,42,40,58,60,70.8C80,83,100,92,120,79.2C140,67,160,33,180,50C200,67,220,133,240,150C260,167,280,133,300,108.3C320,83,340,67,360,66.7C380,67,400,83,420,79.2C440,75,460,50,480,54.2C500,58,520,92,540,116.7C560,142,580,158,600,175C620,192,640,208,660,195.8C680,183,700,142,720,108.3C740,75,760,50,780,70.8C800,92,820,158,840,191.7C860,225,880,225,900,212.5C920,200,940,175,960,158.3C980,142,1000,133,1020,141.7C1040,150,1060,175,1080,191.7C1100,208,1120,217,1140,212.5C1160,208,1180,192,1200,166.7C1220,142,1240,108,1260,79.2C1280,50,1300,25,1320,25C1340,25,1360,50,1380,50C1400,50,1420,25,1430,12.5L1440,0L1440,250L1430,250C1420,250,1400,250,1380,250C1360,250,1340,250,1320,250C1300,250,1280,250,1260,250C1240,250,1220,250,1200,250C1180,250,1160,250,1140,250C1120,250,1100,250,1080,250C1060,250,1040,250,1020,250C1000,250,980,250,960,250C940,250,920,250,900,250C880,250,860,250,840,250C820,250,800,250,780,250C760,250,740,250,720,250C700,250,680,250,660,250C640,250,620,250,600,250C580,250,560,250,540,250C520,250,500,250,480,250C460,250,440,250,420,250C400,250,380,250,360,250C340,250,320,250,300,250C280,250,260,250,240,250C220,250,200,250,180,250C160,250,140,250,120,250C100,250,80,250,60,250C40,250,20,250,10,250L0,250Z"/><defs><linearGradient id="sw-gradient-3" x1="0" x2="0" y1="1" y2="0"><stop stop-color="rgba(0, 0, 0, 1)" offset="0%"/><stop stop-color="rgba(255, 255, 255, 1)" offset="100%"/></linearGradient></defs><path style="transform:translate(0, 150px); opacity:0.7" fill="url(#sw-gradient-3)" d="M0,75L10,62.5C20,50,40,25,60,50C80,75,100,150,120,187.5C140,225,160,225,180,204.2C200,183,220,142,240,133.3C260,125,280,150,300,133.3C320,117,340,58,360,54.2C380,50,400,100,420,137.5C440,175,460,200,480,208.3C500,217,520,208,540,187.5C560,167,580,133,600,129.2C620,125,640,150,660,141.7C680,133,700,92,720,70.8C740,50,760,50,780,79.2C800,108,820,167,840,175C860,183,880,142,900,129.2C920,117,940,133,960,129.2C980,125,1000,100,1020,79.2C1040,58,1060,42,1080,33.3C1100,25,1120,25,1140,37.5C1160,50,1180,75,1200,104.2C1220,133,1240,167,1260,175C1280,183,1300,167,1320,170.8C1340,175,1360,200,1380,212.5C1400,225,1420,225,1430,225L1440,225L1440,250L1430,250C1420,250,1400,250,1380,250C1360,250,1340,250,1320,250C1300,250,1280,250,1260,250C1240,250,1220,250,1200,250C1180,250,1160,250,1140,250C1120,250,1100,250,1080,250C1060,250,1040,250,1020,250C1000,250,980,250,960,250C940,250,920,250,900,250C880,250,860,250,840,250C820,250,800,250,780,250C760,250,740,250,720,250C700,250,680,250,660,250C640,250,620,250,600,250C580,250,560,250,540,250C520,250,500,250,480,250C460,250,440,250,420,250C400,250,380,250,360,250C340,250,320,250,300,250C280,250,260,250,240,250C220,250,200,250,180,250C160,250,140,250,120,250C100,250,80,250,60,250C40,250,20,250,10,250L0,250Z"/></svg>