<?xml version="1.0" standalone="no"?>
<svg xmlns:xlink="http://www.w3.org/1999/xlink" id="wave" style="transform:rotate(0deg); transition: 0.3s" viewBox="0 0 1440 490" version="1.1" xmlns="http://www.w3.org/2000/svg"><defs><linearGradient id="sw-gradient-0" x1="0" x2="0" y1="1" y2="0"><stop stop-color="rgba(0, 0, 0, 1)" offset="0%"/><stop stop-color="rgba(202.093, 202.093, 202.093, 1)" offset="100%"/></linearGradient></defs><path style="transform:translate(0, 0px); opacity:1" fill="url(#sw-gradient-0)" d="M0,98L10,114.3C20,131,40,163,60,212.3C80,261,100,327,120,367.5C140,408,160,425,180,432.8C200,441,220,441,240,408.3C260,376,280,310,300,310.3C320,310,340,376,360,351.2C380,327,400,212,420,196C440,180,460,261,480,285.8C500,310,520,278,540,294C560,310,580,376,600,383.8C620,392,640,343,660,318.5C680,294,700,294,720,294C740,294,760,294,780,269.5C800,245,820,196,840,187.8C860,180,880,212,900,204.2C920,196,940,147,960,163.3C980,180,1000,261,1020,269.5C1040,278,1060,212,1080,228.7C1100,245,1120,343,1140,318.5C1160,294,1180,147,1200,106.2C1220,65,1240,131,1260,196C1280,261,1300,327,1320,359.3C1340,392,1360,392,1380,351.2C1400,310,1420,229,1430,187.8L1440,147L1440,490L1430,490C1420,490,1400,490,1380,490C1360,490,1340,490,1320,490C1300,490,1280,490,1260,490C1240,490,1220,490,1200,490C1180,490,1160,490,1140,490C1120,490,1100,490,1080,490C1060,490,1040,490,1020,490C1000,490,980,490,960,490C940,490,920,490,900,490C880,490,860,490,840,490C820,490,800,490,780,490C760,490,740,490,720,490C700,490,680,490,660,490C640,490,620,490,600,490C580,490,560,490,540,490C520,490,500,490,480,490C460,490,440,490,420,490C400,490,380,490,360,490C340,490,320,490,300,490C280,490,260,490,240,490C220,490,200,490,180,490C160,490,140,490,120,490C100,490,80,490,60,490C40,490,20,490,10,490L0,490Z"/></svg>