<?xml version="1.0" standalone="no"?>
<svg xmlns:xlink="http://www.w3.org/1999/xlink" id="wave" style="transform:rotate(0deg); transition: 0.3s" viewBox="0 0 1440 490" version="1.1" xmlns="http://www.w3.org/2000/svg"><defs><linearGradient id="sw-gradient-0" x1="0" x2="0" y1="1" y2="0"><stop stop-color="rgba(0, 0, 0, 1)" offset="0%"/><stop stop-color="rgba(156.558, 156.558, 156.558, 1)" offset="100%"/></linearGradient></defs><path style="transform:translate(0, 0px); opacity:1" fill="url(#sw-gradient-0)" d="M0,294L10,310.3C20,327,40,359,60,334.8C80,310,100,229,120,196C140,163,160,180,180,228.7C200,278,220,359,240,326.7C260,294,280,147,300,130.7C320,114,340,229,360,245C380,261,400,180,420,147C440,114,460,131,480,155.2C500,180,520,212,540,236.8C560,261,580,278,600,285.8C620,294,640,294,660,261.3C680,229,700,163,720,122.5C740,82,760,65,780,81.7C800,98,820,147,840,138.8C860,131,880,65,900,98C920,131,940,261,960,277.7C980,294,1000,196,1020,163.3C1040,131,1060,163,1080,204.2C1100,245,1120,294,1140,310.3C1160,327,1180,310,1200,285.8C1220,261,1240,229,1260,228.7C1280,229,1300,261,1320,285.8C1340,310,1360,327,1380,326.7C1400,327,1420,310,1430,302.2L1440,294L1440,490L1430,490C1420,490,1400,490,1380,490C1360,490,1340,490,1320,490C1300,490,1280,490,1260,490C1240,490,1220,490,1200,490C1180,490,1160,490,1140,490C1120,490,1100,490,1080,490C1060,490,1040,490,1020,490C1000,490,980,490,960,490C940,490,920,490,900,490C880,490,860,490,840,490C820,490,800,490,780,490C760,490,740,490,720,490C700,490,680,490,660,490C640,490,620,490,600,490C580,490,560,490,540,490C520,490,500,490,480,490C460,490,440,490,420,490C400,490,380,490,360,490C340,490,320,490,300,490C280,490,260,490,240,490C220,490,200,490,180,490C160,490,140,490,120,490C100,490,80,490,60,490C40,490,20,490,10,490L0,490Z"/></svg>