<?xml version="1.0" standalone="no"?>
<svg xmlns:xlink="http://www.w3.org/1999/xlink" id="wave" style="transform:rotate(0deg); transition: 0.3s" viewBox="0 0 1440 490" version="1.1" xmlns="http://www.w3.org/2000/svg"><defs><linearGradient id="sw-gradient-0" x1="0" x2="0" y1="1" y2="0"><stop stop-color="rgba(0, 0, 0, 1)" offset="0%"/><stop stop-color="rgba(255, 255, 255, 1)" offset="100%"/></linearGradient></defs><path style="transform:translate(0, 0px); opacity:1" fill="url(#sw-gradient-0)" d="M0,392L10,351.2C20,310,40,229,60,196C80,163,100,180,120,196C140,212,160,229,180,212.3C200,196,220,147,240,155.2C260,163,280,229,300,228.7C320,229,340,163,360,179.7C380,196,400,294,420,334.8C440,376,460,359,480,334.8C500,310,520,278,540,236.8C560,196,580,147,600,147C620,147,640,196,660,236.8C680,278,700,310,720,343C740,376,760,408,780,400.2C800,392,820,343,840,294C860,245,880,196,900,147C920,98,940,49,960,65.3C980,82,1000,163,1020,187.8C1040,212,1060,180,1080,155.2C1100,131,1120,114,1140,114.3C1160,114,1180,131,1200,138.8C1220,147,1240,147,1260,155.2C1280,163,1300,180,1320,220.5C1340,261,1360,327,1380,318.5C1400,310,1420,229,1430,187.8L1440,147L1440,490L1430,490C1420,490,1400,490,1380,490C1360,490,1340,490,1320,490C1300,490,1280,490,1260,490C1240,490,1220,490,1200,490C1180,490,1160,490,1140,490C1120,490,1100,490,1080,490C1060,490,1040,490,1020,490C1000,490,980,490,960,490C940,490,920,490,900,490C880,490,860,490,840,490C820,490,800,490,780,490C760,490,740,490,720,490C700,490,680,490,660,490C640,490,620,490,600,490C580,490,560,490,540,490C520,490,500,490,480,490C460,490,440,490,420,490C400,490,380,490,360,490C340,490,320,490,300,490C280,490,260,490,240,490C220,490,200,490,180,490C160,490,140,490,120,490C100,490,80,490,60,490C40,490,20,490,10,490L0,490Z"/></svg>