<?xml version="1.0" standalone="no"?>
<svg xmlns:xlink="http://www.w3.org/1999/xlink" id="wave" style="transform:rotate(0deg); transition: 0.3s" viewBox="0 0 1440 490" version="1.1" xmlns="http://www.w3.org/2000/svg"><defs><linearGradient id="sw-gradient-0" x1="0" x2="0" y1="1" y2="0"><stop stop-color="rgba(255, 255, 255, 1)" offset="0%"/><stop stop-color="rgba(203.004, 203.004, 203.004, 1)" offset="100%"/></linearGradient></defs><path style="transform:translate(0, 0px); opacity:1" fill="url(#sw-gradient-0)" d="M0,49L10,40.8C20,33,40,16,60,16.3C80,16,100,33,120,32.7C140,33,160,16,180,73.5C200,131,220,261,240,310.3C260,359,280,327,300,269.5C320,212,340,131,360,98C380,65,400,82,420,73.5C440,65,460,33,480,89.8C500,147,520,294,540,351.2C560,408,580,376,600,343C620,310,640,278,660,236.8C680,196,700,147,720,138.8C740,131,760,163,780,155.2C800,147,820,98,840,65.3C860,33,880,16,900,73.5C920,131,940,261,960,277.7C980,294,1000,196,1020,147C1040,98,1060,98,1080,114.3C1100,131,1120,163,1140,155.2C1160,147,1180,98,1200,89.8C1220,82,1240,114,1260,114.3C1280,114,1300,82,1320,114.3C1340,147,1360,245,1380,261.3C1400,278,1420,212,1430,179.7L1440,147L1440,490L1430,490C1420,490,1400,490,1380,490C1360,490,1340,490,1320,490C1300,490,1280,490,1260,490C1240,490,1220,490,1200,490C1180,490,1160,490,1140,490C1120,490,1100,490,1080,490C1060,490,1040,490,1020,490C1000,490,980,490,960,490C940,490,920,490,900,490C880,490,860,490,840,490C820,490,800,490,780,490C760,490,740,490,720,490C700,490,680,490,660,490C640,490,620,490,600,490C580,490,560,490,540,490C520,490,500,490,480,490C460,490,440,490,420,490C400,490,380,490,360,490C340,490,320,490,300,490C280,490,260,490,240,490C220,490,200,490,180,490C160,490,140,490,120,490C100,490,80,490,60,490C40,490,20,490,10,490L0,490Z"/><defs><linearGradient id="sw-gradient-1" x1="0" x2="0" y1="1" y2="0"><stop stop-color="rgba(188.888, 188.888, 188.888, 1)" offset="0%"/><stop stop-color="rgba(255, 255, 255, 1)" offset="100%"/></linearGradient></defs><path style="transform:translate(0, 50px); opacity:0.9" fill="url(#sw-gradient-1)" d="M0,0L10,57.2C20,114,40,229,60,285.8C80,343,100,343,120,294C140,245,160,147,180,89.8C200,33,220,16,240,73.5C260,131,280,261,300,277.7C320,294,340,196,360,163.3C380,131,400,163,420,147C440,131,460,65,480,40.8C500,16,520,33,540,89.8C560,147,580,245,600,285.8C620,327,640,310,660,326.7C680,343,700,392,720,351.2C740,310,760,180,780,130.7C800,82,820,114,840,155.2C860,196,880,245,900,245C920,245,940,196,960,179.7C980,163,1000,180,1020,163.3C1040,147,1060,98,1080,114.3C1100,131,1120,212,1140,245C1160,278,1180,261,1200,285.8C1220,310,1240,376,1260,375.7C1280,376,1300,310,1320,245C1340,180,1360,114,1380,114.3C1400,114,1420,180,1430,212.3L1440,245L1440,490L1430,490C1420,490,1400,490,1380,490C1360,490,1340,490,1320,490C1300,490,1280,490,1260,490C1240,490,1220,490,1200,490C1180,490,1160,490,1140,490C1120,490,1100,490,1080,490C1060,490,1040,490,1020,490C1000,490,980,490,960,490C940,490,920,490,900,490C880,490,860,490,840,490C820,490,800,490,780,490C760,490,740,490,720,490C700,490,680,490,660,490C640,490,620,490,600,490C580,490,560,490,540,490C520,490,500,490,480,490C460,490,440,490,420,490C400,490,380,490,360,490C340,490,320,490,300,490C280,490,260,490,240,490C220,490,200,490,180,490C160,490,140,490,120,490C100,490,80,490,60,490C40,490,20,490,10,490L0,490Z"/><defs><linearGradient id="sw-gradient-2" x1="0" x2="0" y1="1" y2="0"><stop stop-color="rgba(255, 255, 255, 1)" offset="0%"/><stop stop-color="rgba(0, 0, 0, 1)" offset="100%"/></linearGradient></defs><path style="transform:translate(0, 100px); opacity:0.8" fill="url(#sw-gradient-2)" d="M0,0L10,24.5C20,49,40,98,60,114.3C80,131,100,114,120,147C140,180,160,261,180,294C200,327,220,310,240,302.2C260,294,280,294,300,285.8C320,278,340,261,360,261.3C380,261,400,278,420,310.3C440,343,460,392,480,383.8C500,376,520,310,540,277.7C560,245,580,245,600,245C620,245,640,245,660,228.7C680,212,700,180,720,187.8C740,196,760,245,780,228.7C800,212,820,131,840,89.8C860,49,880,49,900,114.3C920,180,940,310,960,310.3C980,310,1000,180,1020,155.2C1040,131,1060,212,1080,245C1100,278,1120,261,1140,212.3C1160,163,1180,82,1200,40.8C1220,0,1240,0,1260,8.2C1280,16,1300,33,1320,73.5C1340,114,1360,180,1380,171.5C1400,163,1420,82,1430,40.8L1440,0L1440,490L1430,490C1420,490,1400,490,1380,490C1360,490,1340,490,1320,490C1300,490,1280,490,1260,490C1240,490,1220,490,1200,490C1180,490,1160,490,1140,490C1120,490,1100,490,1080,490C1060,490,1040,490,1020,490C1000,490,980,490,960,490C940,490,920,490,900,490C880,490,860,490,840,490C820,490,800,490,780,490C760,490,740,490,720,490C700,490,680,490,660,490C640,490,620,490,600,490C580,490,560,490,540,490C520,490,500,490,480,490C460,490,440,490,420,490C400,490,380,490,360,490C340,490,320,490,300,490C280,490,260,490,240,490C220,490,200,490,180,490C160,490,140,490,120,490C100,490,80,490,60,490C40,490,20,490,10,490L0,490Z"/><defs><linearGradient id="sw-gradient-3" x1="0" x2="0" y1="1" y2="0"><stop stop-color="rgba(0, 0, 0, 1)" offset="0%"/><stop stop-color="rgba(255, 255, 255, 1)" offset="100%"/></linearGradient></defs><path style="transform:translate(0, 150px); opacity:0.7" fill="url(#sw-gradient-3)" d="M0,49L10,57.2C20,65,40,82,60,138.8C80,196,100,294,120,318.5C140,343,160,294,180,236.8C200,180,220,114,240,81.7C260,49,280,49,300,98C320,147,340,245,360,294C380,343,400,343,420,318.5C440,294,460,245,480,204.2C500,163,520,131,540,163.3C560,196,580,294,600,351.2C620,408,640,425,660,416.5C680,408,700,376,720,310.3C740,245,760,147,780,122.5C800,98,820,147,840,179.7C860,212,880,229,900,204.2C920,180,940,114,960,106.2C980,98,1000,147,1020,204.2C1040,261,1060,327,1080,343C1100,359,1120,327,1140,326.7C1160,327,1180,359,1200,375.7C1220,392,1240,392,1260,367.5C1280,343,1300,294,1320,285.8C1340,278,1360,310,1380,285.8C1400,261,1420,180,1430,138.8L1440,98L1440,490L1430,490C1420,490,1400,490,1380,490C1360,490,1340,490,1320,490C1300,490,1280,490,1260,490C1240,490,1220,490,1200,490C1180,490,1160,490,1140,490C1120,490,1100,490,1080,490C1060,490,1040,490,1020,490C1000,490,980,490,960,490C940,490,920,490,900,490C880,490,860,490,840,490C820,490,800,490,780,490C760,490,740,490,720,490C700,490,680,490,660,490C640,490,620,490,600,490C580,490,560,490,540,490C520,490,500,490,480,490C460,490,440,490,420,490C400,490,380,490,360,490C340,490,320,490,300,490C280,490,260,490,240,490C220,490,200,490,180,490C160,490,140,490,120,490C100,490,80,490,60,490C40,490,20,490,10,490L0,490Z"/></svg>