<?xml version="1.0" standalone="no"?>
<svg xmlns:xlink="http://www.w3.org/1999/xlink" id="wave" style="transform:rotate(0deg); transition: 0.3s" viewBox="0 0 1440 250" version="1.1" xmlns="http://www.w3.org/2000/svg"><defs><linearGradient id="sw-gradient-0" x1="0" x2="0" y1="1" y2="0"><stop stop-color="rgba(255, 255, 255, 1)" offset="0%"/><stop stop-color="rgba(0, 0, 0, 1)" offset="100%"/></linearGradient></defs><path style="transform:translate(0, 0px); opacity:1" fill="url(#sw-gradient-0)" d="M0,75L10,75C20,75,40,75,60,62.5C80,50,100,25,120,37.5C140,50,160,100,180,112.5C200,125,220,100,240,79.2C260,58,280,42,300,29.2C320,17,340,8,360,25C380,42,400,83,420,108.3C440,133,460,142,480,120.8C500,100,520,50,540,58.3C560,67,580,133,600,133.3C620,133,640,67,660,58.3C680,50,700,100,720,125C740,150,760,150,780,150C800,150,820,150,840,154.2C860,158,880,167,900,162.5C920,158,940,142,960,150C980,158,1000,192,1020,200C1040,208,1060,192,1080,179.2C1100,167,1120,158,1140,150C1160,142,1180,133,1200,129.2C1220,125,1240,125,1260,116.7C1280,108,1300,92,1320,108.3C1340,125,1360,175,1380,170.8C1400,167,1420,108,1430,79.2L1440,50L1440,250L1430,250C1420,250,1400,250,1380,250C1360,250,1340,250,1320,250C1300,250,1280,250,1260,250C1240,250,1220,250,1200,250C1180,250,1160,250,1140,250C1120,250,1100,250,1080,250C1060,250,1040,250,1020,250C1000,250,980,250,960,250C940,250,920,250,900,250C880,250,860,250,840,250C820,250,800,250,780,250C760,250,740,250,720,250C700,250,680,250,660,250C640,250,620,250,600,250C580,250,560,250,540,250C520,250,500,250,480,250C460,250,440,250,420,250C400,250,380,250,360,250C340,250,320,250,300,250C280,250,260,250,240,250C220,250,200,250,180,250C160,250,140,250,120,250C100,250,80,250,60,250C40,250,20,250,10,250L0,250Z"/><defs><linearGradient id="sw-gradient-1" x1="0" x2="0" y1="1" y2="0"><stop stop-color="rgba(188.888, 188.888, 188.888, 1)" offset="0%"/><stop stop-color="rgba(0, 0, 0, 1)" offset="100%"/></linearGradient></defs><path style="transform:translate(0, 50px); opacity:0.9" fill="url(#sw-gradient-1)" d="M0,100L10,83.3C20,67,40,33,60,33.3C80,33,100,67,120,100C140,133,160,167,180,183.3C200,200,220,200,240,204.2C260,208,280,217,300,208.3C320,200,340,175,360,145.8C380,117,400,83,420,75C440,67,460,83,480,87.5C500,92,520,83,540,79.2C560,75,580,75,600,75C620,75,640,75,660,91.7C680,108,700,142,720,129.2C740,117,760,58,780,41.7C800,25,820,50,840,75C860,100,880,125,900,116.7C920,108,940,67,960,54.2C980,42,1000,58,1020,70.8C1040,83,1060,92,1080,100C1100,108,1120,117,1140,108.3C1160,100,1180,75,1200,75C1220,75,1240,100,1260,125C1280,150,1300,175,1320,158.3C1340,142,1360,83,1380,50C1400,17,1420,8,1430,4.2L1440,0L1440,250L1430,250C1420,250,1400,250,1380,250C1360,250,1340,250,1320,250C1300,250,1280,250,1260,250C1240,250,1220,250,1200,250C1180,250,1160,250,1140,250C1120,250,1100,250,1080,250C1060,250,1040,250,1020,250C1000,250,980,250,960,250C940,250,920,250,900,250C880,250,860,250,840,250C820,250,800,250,780,250C760,250,740,250,720,250C700,250,680,250,660,250C640,250,620,250,600,250C580,250,560,250,540,250C520,250,500,250,480,250C460,250,440,250,420,250C400,250,380,250,360,250C340,250,320,250,300,250C280,250,260,250,240,250C220,250,200,250,180,250C160,250,140,250,120,250C100,250,80,250,60,250C40,250,20,250,10,250L0,250Z"/><defs><linearGradient id="sw-gradient-2" x1="0" x2="0" y1="1" y2="0"><stop stop-color="rgba(255, 255, 255, 1)" offset="0%"/><stop stop-color="rgba(0, 0, 0, 1)" offset="100%"/></linearGradient></defs><path style="transform:translate(0, 100px); opacity:0.8" fill="url(#sw-gradient-2)" d="M0,50L10,79.2C20,108,40,167,60,170.8C80,175,100,125,120,91.7C140,58,160,42,180,37.5C200,33,220,42,240,62.5C260,83,280,117,300,137.5C320,158,340,167,360,154.2C380,142,400,108,420,112.5C440,117,460,158,480,150C500,142,520,83,540,75C560,67,580,108,600,133.3C620,158,640,167,660,158.3C680,150,700,125,720,116.7C740,108,760,117,780,104.2C800,92,820,58,840,41.7C860,25,880,25,900,37.5C920,50,940,75,960,83.3C980,92,1000,83,1020,87.5C1040,92,1060,108,1080,120.8C1100,133,1120,142,1140,158.3C1160,175,1180,200,1200,200C1220,200,1240,175,1260,150C1280,125,1300,100,1320,75C1340,50,1360,25,1380,45.8C1400,67,1420,133,1430,166.7L1440,200L1440,250L1430,250C1420,250,1400,250,1380,250C1360,250,1340,250,1320,250C1300,250,1280,250,1260,250C1240,250,1220,250,1200,250C1180,250,1160,250,1140,250C1120,250,1100,250,1080,250C1060,250,1040,250,1020,250C1000,250,980,250,960,250C940,250,920,250,900,250C880,250,860,250,840,250C820,250,800,250,780,250C760,250,740,250,720,250C700,250,680,250,660,250C640,250,620,250,600,250C580,250,560,250,540,250C520,250,500,250,480,250C460,250,440,250,420,250C400,250,380,250,360,250C340,250,320,250,300,250C280,250,260,250,240,250C220,250,200,250,180,250C160,250,140,250,120,250C100,250,80,250,60,250C40,250,20,250,10,250L0,250Z"/><defs><linearGradient id="sw-gradient-3" x1="0" x2="0" y1="1" y2="0"><stop stop-color="rgba(0, 0, 0, 1)" offset="0%"/><stop stop-color="rgba(255, 255, 255, 1)" offset="100%"/></linearGradient></defs><path style="transform:translate(0, 150px); opacity:0.7" fill="url(#sw-gradient-3)" d="M0,150L10,129.2C20,108,40,67,60,62.5C80,58,100,92,120,108.3C140,125,160,125,180,125C200,125,220,125,240,141.7C260,158,280,192,300,200C320,208,340,192,360,162.5C380,133,400,92,420,66.7C440,42,460,33,480,54.2C500,75,520,125,540,133.3C560,142,580,108,600,91.7C620,75,640,75,660,95.8C680,117,700,158,720,145.8C740,133,760,67,780,41.7C800,17,820,33,840,54.2C860,75,880,100,900,95.8C920,92,940,58,960,58.3C980,58,1000,92,1020,120.8C1040,150,1060,175,1080,183.3C1100,192,1120,183,1140,162.5C1160,142,1180,108,1200,100C1220,92,1240,108,1260,125C1280,142,1300,158,1320,170.8C1340,183,1360,192,1380,191.7C1400,192,1420,183,1430,179.2L1440,175L1440,250L1430,250C1420,250,1400,250,1380,250C1360,250,1340,250,1320,250C1300,250,1280,250,1260,250C1240,250,1220,250,1200,250C1180,250,1160,250,1140,250C1120,250,1100,250,1080,250C1060,250,1040,250,1020,250C1000,250,980,250,960,250C940,250,920,250,900,250C880,250,860,250,840,250C820,250,800,250,780,250C760,250,740,250,720,250C700,250,680,250,660,250C640,250,620,250,600,250C580,250,560,250,540,250C520,250,500,250,480,250C460,250,440,250,420,250C400,250,380,250,360,250C340,250,320,250,300,250C280,250,260,250,240,250C220,250,200,250,180,250C160,250,140,250,120,250C100,250,80,250,60,250C40,250,20,250,10,250L0,250Z"/></svg>